<svg t="1644204946616" class="icon" viewBox="0 0 1024 1024" version="1.1" xmlns="http://www.w3.org/2000/svg" p-id="3083" width="16" height="16"><path d="M510.7 511.6m-448.1 0a448.1 448.1 0 1 0 896.2 0 448.1 448.1 0 1 0-896.2 0Z" fill="#AADCDA" p-id="3084"></path><path d="M772 753.5c0 43.8-116.6 79.3-260.5 79.3S251 797.3 251 753.5s116.6-79.3 260.5-79.3S772 709.7 772 753.5z" fill="#58595B" p-id="3085"></path><path d="M711.1 630.3c0 112.4-91.1 157.3-203.5 157.3s-203.5-44.9-203.5-157.3 91.1-203.5 203.5-203.5S711.1 518 711.1 630.3z" fill="#F3F4F5" p-id="3086"></path><path d="M543.8 430.1c69.1 23.1 119 88.3 119 165.2 0 96.2-78 134.6-174.2 134.6-96.2 0-174.2-38.4-174.2-134.6 0-15.2 2-29.9 5.6-44-10.3 24.3-15.9 51-15.9 79 0 112.4 91.1 157.3 203.5 157.3s203.5-44.9 203.5-157.3c0-100-72.2-183.1-167.3-200.2z" fill="#DDDCDC" p-id="3087"></path><path d="M646.4 388.4c0 76.6-62.1 138.8-138.8 138.8-76.6 0-138.8-62.1-138.8-138.8 0-76.6 62.1-138.8 138.8-138.8 76.6 0 138.8 62.1 138.8 138.8z" fill="#F3F4F5" p-id="3088"></path><path d="M537.7 252.9c45.9 19 78.2 64.3 78.2 117.1 0 70-56.7 126.7-126.7 126.7-52.8 0-98-32.3-117.1-78.2 13.8 62.1 69.2 108.6 135.4 108.6 76.6 0 138.8-62.1 138.8-138.8 0.1-66.2-46.4-121.6-108.6-135.4z" fill="#DDDCDC" p-id="3089"></path><path d="M311.9 476.3c2.6 4.1 3.2 8.3 3.8 12.7 0.8 6.4 2 15.1 10.4 30.7 2.1 3.9 0.9 8.9-2.7 11.2-3.6 2.3-8.3 0.9-10.4-2.9-10-18.4-11.4-29.4-12.4-36.7-0.5-3.6-3.3-14.5 0-17.4 3.3-2.8 8.1-2.2 10.7 1.4 0.2 0.4 0.4 0.7 0.6 1z" fill="#B68072" p-id="3090"></path><path d="M359.7 544.4c2.4 2.8 2.5 7 0.1 9.9-2.7 3.2-7.5 3.6-10.7 0.9-0.5-0.4-50.6-42.3-89.2-47.9-4.1-0.6-7.1-4.4-6.4-8.6 0.6-4.2 4.4-7.1 8.6-6.5 42.9 6.2 94.6 49.5 96.8 51.3 0.2 0.3 0.5 0.6 0.8 0.9zM709.6 469.9c-2.6 4.1-3.2 8.3-3.8 12.7-0.8 6.4-2 15.1-10.4 30.7-2.1 3.9-0.9 8.9 2.7 11.2 3.6 2.3 8.3 0.9 10.4-2.9 10-18.4 11.4-29.4 12.4-36.7 0.5-3.6 3.3-14.5 0-17.3-3.3-2.8-8.1-2.2-10.7 1.4l-0.6 0.9z" fill="#DBA18E" p-id="3091"></path><path d="M661.9 538c-2.4 2.8-2.5 7-0.1 9.9 2.7 3.2 7.5 3.6 10.7 0.9 0.5-0.4 50.6-42.3 89.2-47.9 4.1-0.6 7-4.4 6.4-8.6-0.6-4.2-4.4-7-8.6-6.4-42.9 6.2-94.6 49.5-96.8 51.3-0.3 0.2-0.6 0.5-0.8 0.8z" fill="#B68072" p-id="3092"></path><path d="M622.1 485.8c-9.8 56.9 57.5 138.4 57.2 160.5-0.3 22.1-81.9 63.3-64.2 27.8 17.7-35.5-70.8-132.9-36.1-180.7l43.1-7.6z" fill="#F48B8C" p-id="3093"></path><path d="M609.5 487.4c2.7 14.4 9.2 29.3 17.5 43.8-4.9-16-7.3-31.8-4.9-46.1l-12.6 2.3z" fill="#3E67A6" p-id="3094"></path><path d="M502.9 556.6c-85.9 0-139.4-40.6-142.7-43.2-13.8-10.8-16.3-30.7-5.5-44.5 10.7-13.8 30.5-16.2 44.4-5.6 4.1 3.1 92.2 67.3 224.8-2.9 15.5-8.2 34.7-2.3 42.9 13.2 8.2 15.5 2.3 34.7-13.2 42.9-56.9 29.9-107.8 40.1-150.7 40.1z" fill="#F48B8C" p-id="3095"></path><path d="M666.7 473.5c-3.2-6-8.1-10.6-13.7-13.4 2.3 2.2 4.4 4.7 5.9 7.6 7.8 14.7 2.2 33-12.5 40.7-54 28.5-102.4 38.2-143.1 38.2-81.6 0-132.5-38.6-135.6-41-13.1-10.2-15.5-29.2-5.2-42.3 0.9-1.1 1.9-2.1 3-3.1-4 2-7.7 4.9-10.6 8.7-10.8 13.8-8.3 33.7 5.5 44.5 3.3 2.6 56.8 43.2 142.7 43.2 42.9 0 93.8-10.1 150.6-40.2 15.3-8.2 21.2-27.4 13-42.9z" fill="#F48B8C" p-id="3096"></path><path d="M457.9 385.3c0 10.5-8.5 19-19 19s-19-8.5-19-19 8.5-19 19-19 19 8.5 19 19zM584.8 385.3c0 10.5-8.5 19-19 19s-19-8.5-19-19 8.5-19 19-19c10.4 0 19 8.5 19 19z" fill="#565656" p-id="3097"></path><path d="M586.1 272.6l3.9-22c4.3-24.3-11.9-47.5-36.2-51.8l-22-3.9c-24.3-4.3-47.5 11.9-51.8 36.2l-3.9 22 110 19.5z" fill="#565656" p-id="3098"></path><path d="M594.7 267.5l-8-1.4-108.3-19.3-12-2.2c-3.7-0.6-7.2 1.8-7.9 5.5-0.7 3.7 1.8 7.2 5.5 7.9l12 2.2 108.3 19.3 8 1.4c3.7 0.7 7.2-1.8 7.9-5.5 0.6-3.7-1.8-7.2-5.5-7.9z" fill="#565656" p-id="3099"></path><path d="M590 250.6l-0.7-0.1L481 231.2l-1-0.2-1.6 8.8 1 0.2 108.4 19.3 0.6 0.1z" fill="#F3F4F5" p-id="3100"></path><path d="M516.4 596.3c0 9.5-7.7 17.3-17.3 17.3-9.5 0-17.3-7.7-17.3-17.3 0-9.5 7.7-17.3 17.3-17.3 9.6 0 17.3 7.7 17.3 17.3zM516.4 659.7c0 9.5-7.7 17.3-17.3 17.3-9.5 0-17.3-7.7-17.3-17.3 0-9.5 7.7-17.3 17.3-17.3 9.6 0 17.3 7.8 17.3 17.3z" fill="#4AB4AE" p-id="3101"></path><path d="M627.3 659.2c7.9-23.4-28.4-65-50.1-105.6 14.8 45.5 49.8 96.3 38 119.9-17.7 35.5 63.9-5.7 64.2-27.8 0-1.3-0.2-2.9-0.7-4.6-18.7 22.7-61.2 47.1-51.4 18.1z" fill="#F48B8C" p-id="3102"></path></svg>